<svg xmlns="http://www.w3.org/2000/svg" xmlns:xlink="http://www.w3.org/1999/xlink" width="500" zoomAndPan="magnify" viewBox="0 0 375 374.999991" height="500" preserveAspectRatio="xMidYMid meet" version="1.0"><defs><g/><clipPath id="b6550d383d"><path d="M 68.5 185 L 306.25 185 L 306.25 190 L 68.5 190 Z M 68.5 185 " clip-rule="nonzero"/></clipPath><clipPath id="988f1065bf"><path d="M 233 185 L 280 185 L 280 205.710938 L 233 205.710938 Z M 233 185 " clip-rule="nonzero"/></clipPath><clipPath id="42b5a5e57e"><path d="M 95 185 L 156 185 L 156 205.710938 L 95 205.710938 Z M 95 185 " clip-rule="nonzero"/></clipPath><clipPath id="047396daed"><path d="M 68.5 189.445312 L 306.5 189.445312 L 306.5 208.199219 L 68.5 208.199219 Z M 68.5 189.445312 " clip-rule="nonzero"/></clipPath></defs><g clip-path="url(#b6550d383d)"><path fill="#1a1a1a" d="M 68.5 185.949219 L 306.25 185.949219 L 306.25 189.585938 L 68.5 189.585938 Z M 68.5 185.949219 " fill-opacity="1" fill-rule="evenodd"/></g><g clip-path="url(#988f1065bf)"><path fill="#1a1a1a" d="M 260.0625 185.949219 L 279.09375 185.949219 L 237.496094 205.402344 C 236.1875 205.089844 234.796875 204.949219 233.410156 204.949219 C 233.359375 204.949219 233.3125 204.949219 233.261719 204.949219 L 238.375 196.089844 Z M 260.0625 185.949219 " fill-opacity="1" fill-rule="evenodd"/></g><g clip-path="url(#42b5a5e57e)"><path fill="#1a1a1a" d="M 114.6875 185.949219 L 95.65625 185.949219 L 137.851562 205.679688 L 151.550781 205.679688 C 152.847656 205.359375 154.167969 205.144531 155.5 205.03125 Z M 114.6875 185.949219 " fill-opacity="1" fill-rule="evenodd"/></g><path fill="#1a1a1a" d="M 290.019531 170.242188 C 290.019531 170.242188 290.121094 168.554688 290.914062 166.757812 C 291.707031 164.964844 293.289062 164.277344 285.847656 159.949219 C 278.40625 155.621094 251.597656 141.101562 222.148438 151.765625 C 192.703125 162.429688 164.414062 167.601562 153.964844 156.515625 C 153.964844 156.515625 162.09375 169.1875 194.390625 162.851562 C 226.6875 156.515625 232.808594 147.648438 260.464844 153.5625 C 288.117188 159.472656 289.699219 165.070312 289.699219 166.125 C 289.699219 167.179688 289.699219 169.503906 290.019531 170.242188 " fill-opacity="1" fill-rule="evenodd"/><path fill="#1a1a1a" d="M 234.023438 145.851562 C 234.023438 145.851562 205.949219 128.433594 183.675781 128.117188 C 161.40625 127.800781 123.304688 143.320312 93.117188 143.742188 C 93.117188 143.742188 112.855469 144.269531 148.003906 137.617188 C 173.949219 132.707031 181.375 129.179688 199.875 134.84375 C 206.007812 136.722656 221.394531 141.710938 234.023438 145.851562 " fill-opacity="1" fill-rule="evenodd"/><path fill="#1a1a1a" d="M 102.300781 145.800781 C 102.300781 145.800781 94.015625 145.695312 90.425781 145.058594 C 86.835938 144.425781 84.9375 143.847656 84.039062 148.597656 C 83.144531 153.347656 82.773438 163.113281 84.460938 167.125 C 86.152344 171.136719 78.550781 176.734375 87.207031 177.894531 C 95.859375 179.054688 99.238281 179.160156 99.238281 179.160156 C 99.238281 179.160156 87.46875 177.628906 86.941406 174.460938 C 86.414062 171.296875 89.476562 171.296875 87.46875 164.960938 C 85.464844 158.625 85.410156 147.699219 87.363281 147.539062 C 89.316406 147.382812 97.917969 147.4375 102.300781 145.800781 " fill-opacity="1" fill-rule="evenodd"/><path fill="#38b6ff" d="M 289.804688 171.664062 C 289.804688 171.664062 289.859375 174.621094 290.703125 175.941406 C 291.546875 177.261719 294.027344 179.109375 286.429688 179.054688 C 278.828125 179.003906 264.953125 179.109375 264.953125 179.109375 C 264.953125 179.109375 268.960938 164.328125 259.882812 157.625 C 259.882812 157.625 269.648438 161.898438 268.011719 176.625 C 268.011719 176.625 285.296875 176.757812 286.71875 176.707031 C 288.144531 176.652344 290.019531 176.996094 289.804688 171.664062 " fill-opacity="1" fill-rule="evenodd"/><path fill="#38b6ff" d="M 262.839844 164.695312 C 258.191406 148.542969 225.738281 146.898438 225.738281 175.625 L 139.507812 175.621094 C 139.507812 175.621094 140.035156 149.230469 113.4375 149.863281 C 113.4375 149.863281 137.921875 149.863281 134.757812 180.269531 L 230.121094 180.21875 C 225.851562 149.039062 256.980469 150.917969 262.839844 164.695312 " fill-opacity="1" fill-rule="evenodd"/><path fill="#38b6ff" d="M 122.351562 153.65625 C 104.46875 149.96875 95.351562 163.664062 99.871094 178.257812 C 99.871094 178.257812 93.117188 177.78125 91.796875 173.664062 C 91.796875 173.664062 96.121094 176.410156 95.859375 173.769531 C 93.976562 154.941406 109.882812 148.257812 122.351562 153.65625 " fill-opacity="1" fill-rule="evenodd"/><path fill="#1a1a1a" d="M 247.183594 156.636719 C 247.511719 156.636719 247.839844 156.648438 248.164062 156.667969 C 240.773438 157.15625 234.929688 163.308594 234.929688 170.824219 C 234.929688 178.660156 241.28125 185.015625 249.113281 185.015625 C 253.230469 185.015625 256.9375 183.257812 259.527344 180.457031 C 256.792969 184.328125 252.285156 186.859375 247.179688 186.859375 C 238.835938 186.859375 232.074219 180.09375 232.074219 171.746094 C 232.078125 163.402344 238.839844 156.636719 247.183594 156.636719 " fill-opacity="1" fill-rule="evenodd"/><path fill="#1a1a1a" d="M 249.113281 158.0625 C 256.160156 158.0625 261.871094 163.777344 261.871094 170.824219 C 261.871094 177.871094 256.160156 183.585938 249.113281 183.585938 C 245.546875 183.585938 242.320312 182.121094 240.007812 179.757812 C 242.011719 181.441406 244.597656 182.457031 247.421875 182.457031 C 253.792969 182.457031 258.957031 177.289062 258.957031 170.914062 C 258.957031 164.539062 253.792969 159.375 247.421875 159.375 C 244.15625 159.375 241.210938 160.730469 239.109375 162.90625 C 241.445312 159.957031 245.058594 158.0625 249.113281 158.0625 " fill-opacity="1" fill-rule="evenodd"/><path fill="#1a1a1a" d="M 118.011719 156.636719 C 118.339844 156.636719 118.667969 156.648438 118.992188 156.667969 C 111.601562 157.160156 105.757812 163.308594 105.757812 170.824219 C 105.757812 178.660156 112.109375 185.015625 119.941406 185.015625 C 124.0625 185.015625 127.765625 183.257812 130.359375 180.457031 C 127.621094 184.328125 123.113281 186.859375 118.011719 186.859375 C 109.667969 186.859375 102.902344 180.09375 102.902344 171.746094 C 102.902344 163.402344 109.667969 156.636719 118.011719 156.636719 " fill-opacity="1" fill-rule="evenodd"/><path fill="#1a1a1a" d="M 119.941406 158.0625 C 126.988281 158.0625 132.699219 163.777344 132.699219 170.824219 C 132.699219 177.871094 126.988281 183.585938 119.941406 183.585938 C 116.375 183.585938 113.152344 182.121094 110.835938 179.757812 C 112.839844 181.441406 115.425781 182.457031 118.25 182.457031 C 124.621094 182.457031 129.785156 177.289062 129.785156 170.914062 C 129.785156 164.539062 124.621094 159.375 118.246094 159.375 C 114.984375 159.375 112.035156 160.730469 109.9375 162.90625 C 112.273438 159.957031 115.886719 158.0625 119.941406 158.0625 " fill-opacity="1" fill-rule="evenodd"/><g clip-path="url(#047396daed)"><path fill="#ffffff" d="M 68.5 189.445312 L 306.5 189.445312 L 306.5 208.199219 L 68.5 208.199219 Z M 68.5 189.445312 " fill-opacity="1" fill-rule="nonzero"/></g><g fill="#1a1a1a" fill-opacity="1"><g transform="translate(93.305319, 230.296566)"><g><path d="M 17.34375 -5.203125 C 18.882812 -5.203125 20.328125 -5.523438 21.671875 -6.171875 C 23.015625 -6.816406 24.203125 -7.742188 25.234375 -8.953125 L 29.234375 -5 C 27.828125 -3.34375 26.039062 -2.023438 23.875 -1.046875 C 21.707031 -0.0664062 19.472656 0.421875 17.171875 0.421875 C 14.960938 0.421875 12.898438 0.03125 10.984375 -0.75 C 9.066406 -1.539062 7.40625 -2.609375 6 -3.953125 C 4.601562 -5.296875 3.503906 -6.890625 2.703125 -8.734375 C 1.910156 -10.585938 1.515625 -12.578125 1.515625 -14.703125 C 1.515625 -16.828125 1.921875 -18.820312 2.734375 -20.6875 C 3.546875 -22.550781 4.648438 -24.15625 6.046875 -25.5 C 7.441406 -26.84375 9.097656 -27.90625 11.015625 -28.6875 C 12.941406 -29.46875 14.992188 -29.859375 17.171875 -29.859375 C 19.523438 -29.859375 21.804688 -29.359375 24.015625 -28.359375 C 26.234375 -27.367188 28.03125 -26.035156 29.40625 -24.359375 L 25.28125 -20.28125 C 24.25 -21.570312 23.03125 -22.5625 21.625 -23.25 C 20.226562 -23.9375 18.742188 -24.28125 17.171875 -24.28125 C 15.859375 -24.28125 14.617188 -24.035156 13.453125 -23.546875 C 12.296875 -23.054688 11.296875 -22.382812 10.453125 -21.53125 C 9.617188 -20.675781 8.960938 -19.664062 8.484375 -18.5 C 8.003906 -17.34375 7.765625 -16.078125 7.765625 -14.703125 C 7.765625 -13.359375 8.007812 -12.101562 8.5 -10.9375 C 8.988281 -9.78125 9.660156 -8.78125 10.515625 -7.9375 C 11.367188 -7.09375 12.375 -6.425781 13.53125 -5.9375 C 14.695312 -5.445312 15.96875 -5.203125 17.34375 -5.203125 Z M 17.34375 -5.203125 "/></g></g></g><g fill="#1a1a1a" fill-opacity="1"><g transform="translate(123.461311, 230.296566)"><g><path d="M -0.171875 0 L 11.921875 -29.40625 L 18.984375 -29.40625 L 30.90625 0 L 24.3125 0 L 21.34375 -7.734375 L 9.203125 -7.734375 L 6.171875 0 Z M 11.09375 -12.59375 L 19.484375 -12.59375 L 15.328125 -23.4375 Z M 11.09375 -12.59375 "/></g></g></g><g fill="#1a1a1a" fill-opacity="1"><g transform="translate(154.205301, 230.296566)"><g><path d="M 2.640625 0 L 2.640625 -29.40625 L 17.015625 -29.40625 C 18.492188 -29.40625 19.851562 -29.179688 21.09375 -28.734375 C 22.34375 -28.285156 23.414062 -27.660156 24.3125 -26.859375 C 25.207031 -26.054688 25.90625 -25.09375 26.40625 -23.96875 C 26.914062 -22.851562 27.171875 -21.625 27.171875 -20.28125 C 27.171875 -18.4375 26.644531 -16.785156 25.59375 -15.328125 C 24.550781 -13.867188 23.160156 -12.789062 21.421875 -12.09375 L 27.9375 0 L 21.125 0 L 15.375 -11.25 L 8.734375 -11.25 L 8.734375 0 Z M 16.46875 -24.15625 L 8.734375 -24.15625 L 8.734375 -16.25 L 16.46875 -16.25 C 17.832031 -16.25 18.925781 -16.613281 19.75 -17.34375 C 20.582031 -18.070312 21 -19.023438 21 -20.203125 C 21 -21.378906 20.582031 -22.332031 19.75 -23.0625 C 18.925781 -23.789062 17.832031 -24.15625 16.46875 -24.15625 Z M 16.46875 -24.15625 "/></g></g><g transform="translate(182.723299, 230.296566)"><g/></g></g><g fill="#1a1a1a" fill-opacity="1"><g transform="translate(191.165298, 230.296566)"><g><path d="M 2.640625 0 L 2.640625 -29.40625 L 8.734375 -29.40625 L 8.734375 -17.59375 L 22.265625 -17.59375 L 22.265625 -29.40625 L 28.34375 -29.40625 L 28.34375 0 L 22.265625 0 L 22.265625 -12.015625 L 8.734375 -12.015625 L 8.734375 0 Z M 2.640625 0 "/></g></g><g transform="translate(222.203296, 230.296566)"><g><path d="M 28.21875 -12.71875 C 28.21875 -10.738281 27.910156 -8.925781 27.296875 -7.28125 C 26.679688 -5.644531 25.804688 -4.257812 24.671875 -3.125 C 23.535156 -1.988281 22.160156 -1.113281 20.546875 -0.5 C 18.941406 0.113281 17.160156 0.421875 15.203125 0.421875 C 13.210938 0.421875 11.410156 0.113281 9.796875 -0.5 C 8.191406 -1.113281 6.828125 -1.988281 5.703125 -3.125 C 4.585938 -4.257812 3.722656 -5.640625 3.109375 -7.265625 C 2.492188 -8.890625 2.1875 -10.707031 2.1875 -12.71875 L 2.1875 -29.40625 L 8.28125 -29.40625 L 8.28125 -12.71875 C 8.28125 -10.457031 8.914062 -8.640625 10.1875 -7.265625 C 11.457031 -5.890625 13.144531 -5.203125 15.25 -5.203125 C 17.34375 -5.203125 19.015625 -5.890625 20.265625 -7.265625 C 21.515625 -8.640625 22.140625 -10.457031 22.140625 -12.71875 L 22.140625 -29.40625 L 28.21875 -29.40625 Z M 28.21875 -12.71875 "/></g></g></g><g fill="#1a1a1a" fill-opacity="1"><g transform="translate(252.65329, 230.296566)"><g><path d="M 2.640625 -29.40625 L 16.46875 -29.40625 C 19.40625 -29.40625 21.796875 -28.65625 23.640625 -27.15625 C 25.492188 -25.65625 26.421875 -23.71875 26.421875 -21.34375 C 26.421875 -20.050781 26.097656 -18.875 25.453125 -17.8125 C 24.804688 -16.75 23.925781 -15.863281 22.8125 -15.15625 C 24.207031 -14.488281 25.320312 -13.570312 26.15625 -12.40625 C 27 -11.25 27.421875 -9.957031 27.421875 -8.53125 C 27.421875 -5.976562 26.472656 -3.914062 24.578125 -2.34375 C 22.691406 -0.78125 20.210938 0 17.140625 0 L 2.640625 0 Z M 16.09375 -24.359375 L 8.734375 -24.359375 L 8.734375 -17.390625 L 16.09375 -17.390625 C 17.375 -17.390625 18.40625 -17.703125 19.1875 -18.328125 C 19.976562 -18.960938 20.375 -19.8125 20.375 -20.875 C 20.375 -21.9375 19.976562 -22.78125 19.1875 -23.40625 C 18.40625 -24.039062 17.375 -24.359375 16.09375 -24.359375 Z M 16.671875 -5.046875 C 18.078125 -5.046875 19.195312 -5.382812 20.03125 -6.0625 C 20.875 -6.75 21.296875 -7.679688 21.296875 -8.859375 C 21.296875 -9.984375 20.875 -10.894531 20.03125 -11.59375 C 19.195312 -12.289062 18.078125 -12.640625 16.671875 -12.640625 L 8.734375 -12.640625 L 8.734375 -5.046875 Z M 16.671875 -5.046875 "/></g></g></g></svg>